<?xml version="1.0" encoding="utf-8"?>
<!-- Generator: Adobe Illustrator 28.2.0, SVG Export Plug-In . SVG Version: 6.00 Build 0)  -->
<svg version="1.1" id="logo" xmlns="http://www.w3.org/2000/svg" xmlns:xlink="http://www.w3.org/1999/xlink" x="0px" y="0px"
	 viewBox="0 0 500 500" enable-background="new 0 0 500 500" xml:space="preserve">
<g>
	<path fill="#CBCBCB" d="M92.5,391.3l55.6-169c3.9-11.8,14.9-19.8,27.4-19.8h283.7c11,0,18.9,10.7,15.5,21.2L414.6,414
		c-6.1,19.1-23.8,32.2-43.9,32.2H75c-25.3,0-45.9-20.5-45.9-45.9V85.8C29.2,69.9,42.1,57,58,57h76.2c12.1,0,22.8,7.5,27,18.8
		l10.8,29.3c4.2,11.3,15,18.8,27,18.8h189.8c15.9,0,28.8,12.9,28.8,28.8v49.7"/>
	<g>
		<path d="M104.6,394.7c2.1-6.5,4.3-12.9,6.4-19.4c5-15.1,10-30.3,15-45.4c5.8-17.5,11.5-35,17.3-52.5c4.4-13.5,8.9-27,13.3-40.6
			c1.1-3.3,2.2-6.6,3.2-9.8c0.2-0.6,0.4-1.3,0.6-1.9c0.1-0.3,0.2-0.6,0.3-0.9c0.5-1.4-1.2,2.6-0.5,1.2c0.3-0.7,0.6-1.3,1-2
			c0.4-0.7,0.9-1.4,1.3-2.1c0.2-0.3,0.5-0.8,0.7-1c-0.5,0.4-1.9,2.4-0.6,0.9c1-1.2,2.1-2.2,3.3-3.2c1.5-1.3-1.1,0.8-1.1,0.8
			c0.1-0.2,0.9-0.6,1-0.7c0.8-0.5,1.6-1,2.4-1.4c0.6-0.3,1.3-0.6,1.9-0.9c-3.3,1.8-1.2,0.5-0.1,0.2c1.6-0.5,3.2-0.8,4.9-1.1
			c-1.1,0.1-2.2,0.3-3.3,0.4c3.5-0.4,7.2-0.3,10.7-0.3c6.8,0,13.5,0,20.3,0c22.6,0,45.3,0,67.9,0c27.5,0,55.1,0,82.6,0
			c23.9,0,47.8,0,71.7,0c11.3,0,22.6-0.1,33.9,0c0.9,0,1.9,0.1,2.8,0.2c-1.1-0.1-2.2-0.3-3.3-0.4c0.8,0.1,1.6,0.3,2.3,0.5
			c3,0.9-2-1.2-0.3-0.1c0.6,0.4,1.3,0.9,2,1.2c-1.8-1.4-2.1-1.7-1.2-0.9c0.3,0.3,0.6,0.5,0.8,0.8c2.1,2.2-1.2-2-0.2-0.3
			c0.4,0.7,0.8,1.3,1.2,2c1,1.8-1.1-3.3-0.2-0.3c0.2,0.7,0.4,1.5,0.5,2.3c-0.1-1.1-0.3-2.2-0.4-3.3c0.2,1.4,0.2,2.7,0,4.1
			c0.1-1.1,0.3-2.2,0.4-3.3c-0.4,2.9-1.5,5.8-2.4,8.6c-1.7,5.5-3.5,11.1-5.2,16.6c-5.7,18-11.4,36-17.1,54
			c-6.4,20.3-12.9,40.7-19.3,61c-4.7,14.9-9.4,29.7-14.1,44.6c-0.9,2.8-1.8,5.6-2.6,8.4c0,0.1,0,0.1-0.1,0.2
			c-0.1,0.2-0.1,0.4-0.2,0.6c-0.2,0.5-0.3,1-0.5,1.5c-0.2,0.5-1.1,2.7-0.2,0.6c0.9-2.2-0.5,0.9-0.7,1.4c-0.4,0.7-0.8,1.5-1.2,2.2
			c-0.5,0.9-1.1,1.8-1.6,2.6c-0.7,1-3,3.4-0.2,0.5c-1.3,1.3-2.4,2.8-3.7,4.1c-0.6,0.6-1.2,1.1-1.8,1.7c-0.3,0.3-0.6,0.5-0.9,0.8
			c-0.3,0.3-0.6,0.5-0.9,0.8c0.5-0.4,1-0.8,1.6-1.2c-1.2,1.2-3.1,2.2-4.6,3c-0.8,0.5-1.6,0.9-2.4,1.3c-0.5,0.2-0.9,0.5-1.4,0.7
			c-1,0.4-2.9,0.8,0.7-0.3c-3.6,1.1-7,2.3-10.8,2.8c1.1-0.1,2.2-0.3,3.3-0.4c-4.3,0.6-8.7,0.4-13.1,0.4c-7,0-14.1,0-21.1,0
			c-23.8,0-47.6,0-71.3,0c-29,0-58,0-87,0c-24.9,0-49.8,0-74.7,0c-11.5,0-23.1,0.1-34.6,0c-2.1,0-4.2-0.1-6.3-0.4
			c1.1,0.1,2.2,0.3,3.3,0.4c-2.4-0.3-4.8-0.8-7.1-1.5c-1.1-0.3-2.3-0.8-3.4-1.2c-2.1-0.8,2.7,1.3,0.8,0.3c-0.5-0.3-1.1-0.5-1.6-0.8
			c-2.1-1-4.1-2.2-6-3.6c-0.3-0.2-0.6-0.5-0.9-0.7c0.5,0.4,1.1,0.8,1.6,1.2c-0.5-0.3-0.9-0.7-1.4-1.1c-1-0.8-1.9-1.7-2.8-2.6
			c-0.8-0.8-1.6-1.7-2.4-2.6c-0.4-0.4-0.7-0.9-1.1-1.3c-0.9-1,2,2.8,0.6,0.7c-1.3-1.9-2.6-3.9-3.6-6c-0.3-0.5-0.5-1.1-0.8-1.6
			c-1.1-2.3,0.8,2.1,0.3,0.8c-0.4-1.1-0.8-2.2-1.2-3.4c-0.7-2.4-1.3-4.9-1.6-7.4c0.1,1.1,0.3,2.2,0.4,3.3c-0.6-4.4-0.4-8.9-0.4-13.3
			c0-7.4,0-14.9,0-22.3c0-11.3,0-22.5,0-33.8c0-13.9,0-27.8,0-41.7c0-15.2,0-30.4,0-45.7c0-15.5,0-30.9,0-46.4c0-14.4,0-28.8,0-43.2
			c0-12.1,0-24.3,0-36.4c0-8.6,0-17.3,0-25.9c0-3.9,0-7.8,0-11.7c0-1.3,0.1-2.7,0.2-4c-0.1,1.1-0.3,2.2-0.4,3.3
			c0.2-1.6,0.5-3.2,1-4.7c0.2-0.7,0.5-1.3,0.7-2c0.4-0.9,0.1-0.4-0.7,1.6c0.2-0.4,0.3-0.7,0.5-1.1c0.7-1.4,1.5-2.7,2.4-4
			c1.2-1.7-2,2.3-0.5,0.7c0.5-0.6,1-1.2,1.6-1.7c0.6-0.6,1.1-1,1.7-1.6c1.6-1.5-2.6,1.8-0.7,0.5c1.3-0.9,2.6-1.7,4-2.4
			c0.4-0.2,0.7-0.3,1.1-0.5c-0.6,0.3-1.3,0.5-1.9,0.8c0.4-0.4,1.7-0.6,2.2-0.8c1.5-0.5,3.1-0.8,4.7-1c-1.1,0.1-2.2,0.3-3.3,0.4
			c3.4-0.4,6.9-0.2,10.3-0.2c6.2,0,12.4,0,18.6,0c14.2,0,28.4,0,42.6,0c4,0,8.2-0.2,12.2,0.3c-1.1-0.1-2.2-0.3-3.3-0.4
			c2.1,0.3,4.1,0.9,6.1,1.5c2.3,0.7-2.8-1.4-0.7-0.3c0.4,0.2,0.7,0.4,1.1,0.5c1.1,0.6,2.1,1.3,3.2,1.9c2,1.3-2.4-2-0.6-0.5
			c0.3,0.3,0.6,0.5,0.9,0.8c0.8,0.7,1.5,1.4,2.2,2.2c0.7,0.7,1.7,2.5-0.4-0.6c0.2,0.3,0.5,0.7,0.7,1c0.7,1,1.3,2.1,1.9,3.3
			c1.5,2.9-0.7-2,0,0c0,0.1,0.1,0.2,0.1,0.3c0.2,0.6,0.4,1.2,0.6,1.7c0.8,2.2,1.6,4.4,2.4,6.6c2,5.4,4,10.8,6,16.3
			c0.5,1.4,1,2.8,1.6,4.2c1.9,5.1,4.2,9.2,7.6,13.4c8.2,10.2,20.8,14.8,33.6,14.8c5.4,0,10.8,0,16.1,0c21.2,0,42.3,0,63.5,0
			c23.6,0,47.2,0,70.8,0c12.4,0,24.7,0,37.1,0c1.3,0,2.7,0.1,4,0.2c-1.1-0.1-2.2-0.3-3.3-0.4c1.6,0.2,3.2,0.5,4.7,1
			c0.7,0.2,1.3,0.5,2,0.7c0.9,0.4,0.4,0.1-1.6-0.7c0.4,0.2,0.7,0.3,1.1,0.5c1.4,0.7,2.7,1.5,4,2.4c1.7,1.2-2.3-2-0.7-0.5
			c0.6,0.5,1.2,1,1.7,1.6c0.6,0.6,1,1.1,1.6,1.7c1.5,1.6-1.8-2.6-0.5-0.7c0.9,1.3,1.7,2.6,2.4,4c0.2,0.4,0.3,0.7,0.5,1.1
			c-0.3-0.6-0.5-1.3-0.8-1.9c0.4,0.4,0.6,1.7,0.8,2.2c0.5,1.5,0.8,3.1,1,4.7c-0.1-1.1-0.3-2.2-0.4-3.3c0.7,6.2,0.2,12.8,0.2,19
			c0,9.2,0,18.5,0,27.7c0,2.2,0,4.4,0,6.6c0,6.5,5.7,12.8,12.5,12.5c6.8-0.3,12.5-5.5,12.5-12.5c0-8.9,0-17.7,0-26.6
			c0-9.9,0.8-20.2-0.7-30.1c-2.9-19.8-21.2-34.1-40.8-34.3c-4.1,0-8.2,0-12.3,0c-20.8,0-41.5,0-62.3,0c-24.9,0-49.8,0-74.7,0
			c-13.3,0-26.7,0-40,0c-1.4,0-2.8-0.1-4.2-0.3c1.1,0.1,2.2,0.3,3.3,0.4c-1.7-0.2-3.3-0.6-4.9-1.1c-0.5-0.2-3-1.2-0.8-0.2
			c2.2,0.9-0.8-0.4-1.3-0.7c-0.7-0.4-1.4-0.8-2.1-1.3c-0.3-0.2-0.5-0.4-0.8-0.5c-1.3-0.8,2.2,1.8,1.1,0.8c-1.3-1.2-2.6-2.4-3.8-3.7
			c-1.3-1.5,1.8,2.6,0.2,0.3c-0.5-0.7-0.9-1.4-1.3-2.1c-0.4-0.6-0.7-1.3-1-2c-1.1-2,1,2.7,0.3,0.6c-0.2-0.7-0.5-1.4-0.8-2.1
			c-2.8-7.6-5.6-15.3-8.4-22.9c-1.3-3.4-2.5-6.9-4.1-10.2c-3.6-7.3-10.2-13.8-17.5-17.4c-6.1-3-12.5-4.6-19.3-4.7
			c-1.6,0-3.1,0-4.7,0c-16.5,0-33,0-49.6,0c-6.5,0-12.9,0-19.4,0c-1.7,0-3.4,0-5.1,0.1c-9.2,0.9-17.2,4.1-24.3,10
			c-9.2,7.6-14.2,19.6-14.3,31.4c0,1.6,0,3.3,0,4.9c0,8.7,0,17.5,0,26.2c0,14.2,0,28.4,0,42.6c0,17.5,0,35,0,52.5
			c0,18.7,0,37.4,0,56.1c0,17.7,0,35.5,0,53.2c0,14.6,0,29.2,0,43.9c0,9.4,0,18.7,0,28.1c0,2,0,4.1,0,6.1c0,9,2,17.4,5.6,25.6
			c9.3,20.9,31.2,33.5,53.7,33.5c6.5,0,12.9,0,19.4,0c12.9,0,25.9,0,38.8,0c17,0,34,0,51,0c18.6,0,37.3,0,55.9,0
			c17.9,0,35.7,0,53.6,0c14.6,0,29.3,0,43.9,0c9,0,18,0,27,0c1.6,0,3.3,0,4.9,0c11.8-0.1,24.1-3.6,33.7-10.6
			c10.7-7.9,18.4-18.2,22.5-31c0.7-2.2,1.4-4.4,2.1-6.6c3.7-11.6,7.3-23.2,11-34.8c5.4-16.9,10.7-33.9,16.1-50.8
			c5.4-17.2,10.9-34.4,16.3-51.6c3.9-12.4,7.8-24.7,11.7-37.1c0.9-2.8,1.8-5.6,2.7-8.4c3.3-10.6,0.6-23.1-8.1-30.4
			c-6-5.1-13-7.4-20.8-7.4c-2.6,0-5.3,0-7.9,0c-10.8,0-21.5,0-32.3,0c-15.9,0-31.8,0-47.7,0c-18.4,0-36.8,0-55.2,0
			c-18.3,0-36.6,0-54.8,0c-15.5,0-31,0-46.5,0c-10.1,0-20.2,0-30.3,0c-2.2,0-4.4,0-6.6,0c-10.5,0-19.9,3.6-27.9,10.3
			c-9.5,7.9-12.6,19.7-16.2,30.9c-4.5,13.8-9.1,27.5-13.6,41.3c-5.8,17.5-11.5,35.1-17.3,52.6c-4.9,14.9-9.8,29.9-14.8,44.8
			c-2,6-4,12.1-6,18.1c-2,6.2,2.4,13.9,8.7,15.4C96.1,405,102.4,401.3,104.6,394.7L104.6,394.7z"/>
	</g>
</g>
<path fill="#307BBF" d="M372.3,228.8c-87.3,0-174.7,56.4-174.7,111.8c0,22.7,11,44.1,43.8,44.9c43.1,0,69.4-39.1,69.4-60
	c0-10.9-3-16.6-3.6-18.3c0,30.1-24.3,50.8-42.7,50.8c-16.4,0-24.7-18.2-24.7-35.1C239.9,266.8,338.8,235.4,372.3,228.8z"/>
<path fill="#307BBF" d="M197.7,420.8c87.3,0,174.7-56.4,174.7-111.8c0-22.7-11-44.1-43.8-44.9c-43.1,0-69.4,39.1-69.4,60
	c0,10.9,3,16.6,3.6,18.3c0-30.1,24.3-50.8,42.7-50.8c16.4,0,24.7,18.2,24.7,35.1C330.1,382.8,231.2,414.1,197.7,420.8z"/>
</svg>
